<svg xmlns="http://www.w3.org/2000/svg" viewBox="0 0 651.52 618.88"><path fill="#c8a84b" d="m 325.67819,447.32056 h -0.64 c 0,55.0468 -18.43479,128.19547 -80,142.56938 -10.42785,2.43465 -20.76147,2.75684 -31.36,2.01336 -12.74184,-0.89387 -25.46981,-5.18817 -37.12,-10.18324 -16.48361,-7.06739 -31.96923,-17.87078 -45.44001,-29.62223 C 46.363284,478.1608 7.9935581,362.85904 35.358176,253.40056 44.290691,217.67048 60.15887,183.51947 81.568549,153.56056 103.33122,123.10771 130.18607,96.927284 161.19818,75.957596 263.18174,6.9985716 400.67315,10.305642 500.39819,81.694901 c 27.5386,19.713789 51.75559,44.141789 71.21876,71.865659 49.41461,70.3875 66.58844,160.57379 44.69531,243.84 -4.93918,18.78516 -12.02031,36.77852 -20.1116,54.4 -4.47695,9.75004 -12.97324,19.26118 -16.02715,29.44 -2.26098,7.53594 -1.69531,18.35793 -1.69531,26.24 7.07062,-2.95937 17.16363,-7.31996 22.79754,-12.55011 6.67418,-6.1959 11.09082,-17.79059 15.12047,-25.84989 11.80648,-23.613 21.2905,-48.41976 26.99359,-74.24 C 669.40883,277.04123 628.04101,153.85798 535.5982,75.752166 422.24991,-20.016897 253.69381,-24.313496 134.31818,62.777361 101.60679,86.642049 73.464276,116.97763 51.56114,151.00056 c -30.873777,47.95735 -46.5522719,102.2366 -50.4202519,158.72 -2.80763,40.9993 3.27598,84.92828 17.7056819,123.52 15.275031,40.8525 36.290034,77.62086 65.66025,110.08 8.581348,9.48387 18.16504,18.38309 28.05135,26.48692 45.05542,36.93195 122.46183,72.18211 174.72002,27.82715 6.57545,-5.58102 12.47045,-11.88539 17.22963,-19.11407 20.58307,-31.26351 23.97408,-69.79148 23.08099,-106.24 -0.20398,-8.32468 -1.84171,-16.63453 -1.91062,-24.96 m 0,-253.44 h -0.64 c -0.6967,-33.74812 -12.38596,-77.05785 -42.24,-95.965933 -30.09545,-19.061015 -72.99633,-12.930195 -94.24247,16.605933 -9.29587,12.92305 -12.63753,29.15531 -12.63753,44.8 -39.70716,0 -80.952385,31.49215 -70.88939,74.88 1.8993,8.18906 5.34983,15.98821 9.89233,23.04 20.64275,32.04594 64.54094,46.41561 101.31706,46.72 v 0.64 c -39.18139,0 -84.32709,14.09414 -103.51459,51.2 -22.305159,43.135 13.78985,103.54368 63.19459,103.68 2.2166,51.48684 59.46982,83.53368 103.04,56.17332 29.65434,-18.62175 43.44752,-63.18425 46.08,-96.49332 h 0.64 c 0.008,11.41602 2.94891,22.94688 5.83406,33.92 6.59703,25.09051 15.39625,49.04829 38.96594,63.07012 33.33141,19.82918 78.90278,8.83817 97.35063,-25.95012 6.08566,-11.47617 7.60937,-24.33882 7.60937,-37.12 49.83208,0 90.89497,-55.09023 62.67805,-100.48 -15.98422,-25.71224 -47.37328,-35.97984 -75.47805,-41.6 -9.6032,-1.92037 -19.62816,-3.83892 -29.44,-3.84 v -1.28 c 10.25262,-0.007 20.75543,-2.44898 30.72,-4.70371 30.16028,-6.82453 62.38169,-20.97062 77.51114,-49.69629 23.39293,-44.41519 -21.45184,-94.08 -66.63114,-94.08 0,-14.77109 -2.55961,-29.59805 -10.68691,-42.24 -20.47566,-31.849761 -64.95199,-39.298628 -96.19309,-19.395073 -23.96852,15.270233 -32.72172,41.570463 -38.01578,68.035073 -1.956,9.77785 -4.19668,20.07961 -4.22422,30.08 m 126.72,-14.08 c 15.47715,-2.0841 27.5736,-6.27137 42.88,0.2736 28.59372,12.22656 45.75454,43.15457 28.01337,71.4064 -3.85497,6.13879 -8.87973,11.29012 -14.57336,15.7284 -50.54098,39.39748 -121.80923,37.3916 -182.40001,37.3916 0,42.41274 -2.52732,83.72364 -14.16988,124.8 -5.4295,19.15594 -12.45715,39.49098 -24.32938,55.68 -17.7359,24.18477 -54.12598,33.4336 -76.5916,9.57481 -13.51102,-14.34887 -18.66914,-35.75348 -18.66914,-55.01481 -10.67612,0.22039 -19.64325,2.56063 -30.08001,-1.56789 -26.0799,-10.31652 -46.89331,-38.87765 -38.76593,-67.55211 3.44178,-12.14308 12.26773,-22.955 21.48593,-31.25086 28.20891,-25.38648 74.0336,-28.35998 110.08001,-30.88642 11.3064,-0.79246 22.59795,-2.65651 33.92,-3.14272 v -0.64 c -12.51998,-0.008 -25.31447,-2.4014 -37.76,-3.73383 -37.64578,-4.03039 -85.23036,-9.33675 -113.09729,-37.9748 -19.84628,-20.39543 -26.32878,-53.27004 -1.46272,-72.57926 5.09196,-3.95406 10.57961,-6.995 16.64,-9.19754 15.75104,-5.72437 29.75926,-1.99117 45.44001,1.24543 -5.23116,-15.44777 -6.60668,-36.45176 1.20937,-51.2 16.33352,-30.81992 58.52012,-34.432495 83.27014,-12.05086 14.07565,12.72871 19.6269,32.12309 24.41729,49.81086 7.02775,25.94887 10.78136,52.65625 13.45136,79.36 1.50069,15.00895 3.7302,30.35098 3.73184,45.44 3.97477,-13.32242 2.60773,-29.66359 3.94863,-43.52 2.64532,-27.33566 6.41848,-54.6741 13.40543,-81.28 3.68016,-14.01383 7.52762,-28.83305 15.76348,-40.96 20.84852,-30.698472 70.95371,-36.537534 91.12395,-1.28 10.34453,18.08223 4.63574,34.05715 3.11851,53.12 z"/></svg>
